<svg height="512pt" viewBox="-114 0 512 512.00104" width="512pt" xmlns="http://www.w3.org/2000/svg"><path d="m241.972656 270.023438-14.804687-14.996094c-2.949219-2.996094-7.769531-3.023438-10.761719-.074219-2.992188 2.953125-3.023438 7.773437-.070312 10.765625l14.835937 15.035156c49.335937 49.335938 49.339844 129.617188.007813 178.957032-23.902344 23.902343-55.683594 37.066406-89.496094 37.066406-16.820313 0-33.121094-3.21875-48.445313-9.570313-15.316406-6.339843-29.117187-15.589843-41.015625-27.496093-23.859375-23.863282-37-55.640626-37-89.480469 0-33.839844 13.140625-65.613281 37.003906-89.46875l38.183594-38.203125c4.546875 1.613281 9.414063 2.488281 14.441406 2.488281 4.628907 0 9.21875-.75 13.644532-2.222656l56.621094-18.875 6.375 6.460937-45.183594 45.183594-44.609375 44.628906c-27.578125 27.574219-27.578125 72.445313-.003907 100.019532 13.355469 13.359374 31.113282 20.714843 49.992188 20.714843 18.898438 0 36.660156-7.355469 50.019531-20.714843 27.574219-27.574219 27.574219-72.441407 0-100.015626l-39.25-39.253906 39.730469-39.726562 8.269531 8.378906c1.488281 1.507812 3.453125 2.265625 5.417969 2.265625 1.929688 0 3.863281-.730469 5.34375-2.195313 2.992188-2.953124 3.023438-7.773437.070312-10.761718l-20.078124-20.347656.945312-.316407c22.5625-7.519531 34.800781-31.996093 27.277344-54.558593-3.492188-10.480469-10.648438-18.726563-19.566406-23.804688 17.519531-9.976562 26.179687-31.28125 19.566406-51.117188-3.640625-10.929687-11.324219-19.785156-21.628906-24.9375-4.148438-2.078124-8.527344-3.4375-12.988282-4.101562v-52.136719c0-4.207031-3.40625-7.613281-7.613281-7.613281h-71.039063c-4.203124 0-7.613281 3.40625-7.613281 7.613281v20.050781c0 4.203126 3.410157 7.613282 7.613281 7.613282 4.203126 0 7.609376-3.410156 7.609376-7.613282v-12.441406h55.820312v45.011719c-1.582031.339844-3.160156.757813-4.71875 1.277344l-51.101562 17.035156v-25.507813c0-4.203124-3.40625-7.613281-7.609376-7.613281-4.203124 0-7.613281 3.410157-7.613281 7.613281v30.578126l-7.332031 2.445312c-22.5625 7.519531-34.800781 31.996094-27.28125 54.558594 3.449219 10.339844 10.523438 18.6875 19.527344 23.828125-17.488282 9.984375-26.132813 31.273437-19.527344 51.09375 2.539062 7.613281 7.046875 14.148437 12.84375 19.117187l-35.320312 35.335938c-26.734376 26.730468-41.460938 62.328125-41.460938 100.238281 0 37.90625 14.722656 73.503906 41.457031 100.238281 13.320313 13.332032 28.785157 23.695313 45.960938 30.800782 17.179687 7.117187 35.4375 10.726562 54.265625 10.726562 37.878906 0 73.484375-14.746094 100.265625-41.523438 55.265625-55.28125 55.257812-145.21875.023437-200.453124zm-61.03125 139.453124c-10.484375 10.484376-24.425781 16.257813-39.257812 16.257813-14.8125 0-28.746094-5.773437-39.226563-16.257813-21.640625-21.640624-21.636719-56.847656.003907-78.492187l39.230468-39.242187 39.25 39.25c21.636719 21.636718 21.636719 56.847656 0 78.484374zm-84.910156-308.972656s79.539062-25.996094 82.507812-25.996094c4.273438 0 8.519532.992188 12.453126 2.960938 6.667968 3.332031 11.640624 9.0625 13.996093 16.136719 4.867188 14.597656-3.050781 30.433593-17.652343 35.300781l-73.652344 24.550781c-2.871094.957031-5.84375 1.441407-8.832032 1.441407-12.027343 0-22.667968-7.671876-26.472656-19.089844-4.867187-14.601563 3.050782-30.4375 17.652344-35.304688zm0 74.921875 73.65625-24.550781c2.917969-.972656 5.882812-1.433594 8.804688-1.433594 11.6875 0 22.605468 7.402344 26.5 19.085938 4.863281 14.597656-3.054688 30.433594-17.652344 35.300781l-73.65625 24.554687c-2.871094.953126-5.84375 1.4375-8.832032 1.4375-4.453124 0-8.714843-1.054687-12.507812-2.960937-.109375-.058594-.21875-.113281-.328125-.167969-6.300781-3.265625-11.28125-8.894531-13.636719-15.964844-4.867187-14.597656 3.050782-30.433593 17.652344-35.300781zm0 0"/></svg>